<svg width="888" height="155" viewBox="0 0 888 155" fill="none" xmlns="http://www.w3.org/2000/svg">
<g clip-path="url(#clip0_15_2248)">
<path d="M887.109 151.172H825.879V144.043C827.572 143.913 829.199 143.75 830.762 143.555C832.389 143.359 833.822 143.034 835.059 142.578C837.142 141.797 838.542 140.69 839.258 139.258C840.039 137.76 840.43 135.807 840.43 133.398V25.1953C840.43 22.7214 839.909 20.4427 838.867 18.3594C837.891 16.2109 836.556 14.5833 834.863 13.4766C833.561 12.6302 831.576 11.8164 828.906 11.0352C826.302 10.2539 823.991 9.79818 821.973 9.66797V2.53906L871.094 0L872.559 1.5625V132.129C872.559 134.538 872.982 136.491 873.828 137.988C874.674 139.486 876.042 140.658 877.93 141.504C879.232 142.09 880.599 142.611 882.031 143.066C883.464 143.522 885.156 143.848 887.109 144.043V151.172Z" fill="#0A2E1A"/>
<path d="M820.117 149.121C817.253 150.358 813.867 151.497 809.961 152.539C806.055 153.581 801.921 154.102 797.559 154.102C789.551 154.102 783.659 152.93 779.883 150.586C776.107 148.177 773.535 144.759 772.168 140.332H771.582C769.368 142.546 767.22 144.434 765.137 145.996C763.118 147.559 760.938 148.893 758.594 150C755.534 151.432 752.572 152.474 749.707 153.125C746.908 153.841 742.969 154.199 737.891 154.199C730.339 154.199 723.893 151.986 718.555 147.559C713.216 143.066 710.547 137.142 710.547 129.785C710.547 125.553 711.133 121.973 712.305 119.043C713.477 116.048 715.137 113.411 717.285 111.133C719.238 109.049 721.484 107.324 724.023 105.957C726.628 104.59 729.46 103.32 732.52 102.148C738.379 100 745.41 97.7865 753.613 95.5078C761.816 93.1641 767.806 91.0807 771.582 89.2578V79.8828C771.582 78.2552 771.452 76.1068 771.191 73.4375C770.931 70.7682 770.378 68.5221 769.531 66.6992C768.62 64.6159 767.188 62.8581 765.234 61.4258C763.281 59.9935 760.71 59.2773 757.52 59.2773C754.655 59.2773 752.246 59.7005 750.293 60.5469C748.405 61.3281 746.875 62.1419 745.703 62.9883C745.898 64.2904 746.452 66.276 747.363 68.9453C748.275 71.6146 748.73 74.1862 748.73 76.6602C748.73 77.7669 748.438 79.1667 747.852 80.8594C747.266 82.487 746.419 83.7891 745.312 84.7656C743.815 86.0677 742.122 87.0768 740.234 87.793C738.411 88.5091 735.579 88.8672 731.738 88.8672C726.27 88.8672 722.135 87.5651 719.336 84.9609C716.536 82.2917 715.137 78.8411 715.137 74.6094C715.137 70.9635 716.569 67.7083 719.434 64.8438C722.363 61.9141 725.911 59.5052 730.078 57.6172C734.18 55.6641 738.9 54.1667 744.238 53.125C749.577 52.0182 754.525 51.4648 759.082 51.4648C765.397 51.4648 771.191 51.8555 776.465 52.6367C781.738 53.3529 786.491 54.8828 790.723 57.2266C794.759 59.5052 797.949 62.8255 800.293 67.1875C802.702 71.4844 803.906 77.1159 803.906 84.082C803.906 91.4388 803.743 100.163 803.418 110.254C803.158 120.345 803.027 126.986 803.027 130.176C803.027 133.105 803.451 135.417 804.297 137.109C805.208 138.802 806.576 140.072 808.398 140.918C809.505 141.439 811.23 141.764 813.574 141.895C815.983 141.96 818.164 141.992 820.117 141.992V149.121ZM771.582 98.2422C767.936 99.4792 764.323 100.911 760.742 102.539C757.161 104.102 754.232 105.762 751.953 107.52C749.544 109.342 747.656 111.686 746.289 114.551C744.922 117.35 744.238 120.671 744.238 124.512C744.238 129.59 745.378 133.268 747.656 135.547C750 137.826 752.865 138.965 756.25 138.965C759.831 138.965 762.76 138.249 765.039 136.816C767.383 135.319 769.434 133.496 771.191 131.348L771.582 98.2422Z" fill="#0A2E1A"/>
<path d="M706.348 61.4258C703.418 61.8815 700.553 62.9883 697.754 64.7461C695.02 66.5039 692.741 69.2383 690.918 72.9492C686.361 82.4544 681.868 92.0573 677.441 101.758C673.079 111.393 668.783 120.736 664.551 129.785C663.249 132.52 661.751 136.035 660.059 140.332C658.431 144.629 657.064 148.535 655.957 152.051H637.988C630.501 134.668 624.089 120.247 618.75 108.789C613.477 97.3307 607.878 85.026 601.953 71.875C600.586 68.8151 598.438 66.4062 595.508 64.6484C592.643 62.8906 589.714 61.8164 586.719 61.4258V54.2969H646.875V61.4258C644.661 61.4909 642.057 61.9792 639.062 62.8906C636.068 63.8021 634.57 64.974 634.57 66.4062C634.57 66.7969 634.701 67.3828 634.961 68.1641C635.221 68.9453 635.547 69.8242 635.938 70.8008C638.021 75.7487 641.146 82.8776 645.312 92.1875C649.544 101.497 654.004 111.296 658.691 121.582C661.947 114.486 665.039 107.552 667.969 100.781C670.964 93.9453 674.642 85.2539 679.004 74.707C679.59 73.1445 679.915 71.875 679.98 70.8984C680.111 69.9219 680.176 69.2708 680.176 68.9453C680.176 67.7734 679.59 66.7643 678.418 65.918C677.311 65.0065 675.977 64.2253 674.414 63.5742C672.786 62.9232 671.224 62.4349 669.727 62.1094C668.229 61.7839 666.992 61.556 666.016 61.4258V54.2969H706.348V61.4258Z" fill="#0A2E1A"/>
<path d="M586.035 151.172H527.246V144.043C528.548 143.913 530.078 143.75 531.836 143.555C533.594 143.359 534.896 143.034 535.742 142.578C537.109 141.862 538.053 140.82 538.574 139.453C539.16 138.086 539.453 136.068 539.453 133.398V87.6953C539.453 80.9896 538.184 75.9766 535.645 72.6562C533.171 69.3359 529.622 67.6758 525 67.6758C522.396 67.6758 519.954 68.0664 517.676 68.8477C515.462 69.6289 513.281 70.7682 511.133 72.2656C509.245 73.5677 507.715 74.9023 506.543 76.2695C505.436 77.6367 504.492 78.8411 503.711 79.8828V132.324C503.711 134.733 504.004 136.654 504.59 138.086C505.176 139.453 506.283 140.592 507.91 141.504C508.887 142.09 510.156 142.611 511.719 143.066C513.346 143.522 514.909 143.848 516.406 144.043V151.172H457.031V144.043C458.724 143.913 460.352 143.75 461.914 143.555C463.542 143.359 464.974 143.034 466.211 142.578C468.294 141.797 469.694 140.69 470.41 139.258C471.191 137.76 471.582 135.807 471.582 133.398V24.5117C471.582 22.4284 471.094 20.2148 470.117 17.8711C469.141 15.5273 467.773 13.7695 466.016 12.5977C464.714 11.7513 462.826 11.1003 460.352 10.6445C457.878 10.1237 455.664 9.79818 453.711 9.66797V2.53906L502.246 0L503.711 1.5625V68.75H504.102C506.576 66.5365 508.789 64.5508 510.742 62.793C512.76 60.9701 515.202 59.1471 518.066 57.3242C520.475 55.7617 523.6 54.4271 527.441 53.3203C531.348 52.2135 535.547 51.6602 540.039 51.6602C550.586 51.6602 558.496 54.6875 563.77 60.7422C569.108 66.7969 571.777 74.7721 571.777 84.668V132.52C571.777 134.928 572.135 136.849 572.852 138.281C573.568 139.714 574.902 140.853 576.855 141.699C578.027 142.22 579.329 142.676 580.762 143.066C582.194 143.457 583.952 143.783 586.035 144.043V151.172Z" fill="#0A2E1A"/>
<path d="M449.609 127.832C447.331 131.543 444.564 135.059 441.309 138.379C438.118 141.634 434.473 144.434 430.371 146.777C426.009 149.251 421.582 151.107 417.09 152.344C412.663 153.646 407.552 154.297 401.758 154.297C392.122 154.297 383.789 152.93 376.758 150.195C369.792 147.461 364.03 143.783 359.473 139.16C354.915 134.538 351.497 129.102 349.219 122.852C347.005 116.536 345.898 109.701 345.898 102.344C345.898 95.7031 347.103 89.3555 349.512 83.3008C351.986 77.181 355.469 71.7448 359.961 66.9922C364.388 62.3698 369.954 58.6263 376.66 55.7617C383.431 52.8971 390.983 51.4648 399.316 51.4648C408.431 51.4648 415.918 52.5716 421.777 54.7852C427.637 56.9987 432.487 60.0586 436.328 63.9648C440.039 67.6758 442.741 72.0703 444.434 77.1484C446.126 82.1615 446.973 87.4349 446.973 92.9688V99.3164H380.957C380.957 112.663 383.529 122.819 388.672 129.785C393.815 136.751 401.986 140.234 413.184 140.234C419.303 140.234 424.805 138.574 429.688 135.254C434.57 131.868 438.737 127.604 442.188 122.461L449.609 127.832ZM412.305 90.7227C412.305 86.8164 412.109 82.8125 411.719 78.7109C411.328 74.6094 410.645 71.2565 409.668 68.6523C408.561 65.5924 407.031 63.2812 405.078 61.7188C403.19 60.1562 400.781 59.375 397.852 59.375C392.839 59.375 388.835 61.9141 385.84 66.9922C382.845 72.0703 381.217 80.1107 380.957 91.1133L412.305 90.7227Z" fill="#0A2E1A"/>
<path d="M335.156 151.172H273.926V144.043C275.618 143.913 277.246 143.75 278.809 143.555C280.436 143.359 281.868 143.034 283.105 142.578C285.189 141.797 286.589 140.69 287.305 139.258C288.086 137.76 288.477 135.807 288.477 133.398V25.1953C288.477 22.7214 287.956 20.4427 286.914 18.3594C285.938 16.2109 284.603 14.5833 282.91 13.4766C281.608 12.6302 279.622 11.8164 276.953 11.0352C274.349 10.2539 272.038 9.79818 270.02 9.66797V2.53906L319.141 0L320.605 1.5625V132.129C320.605 134.538 321.029 136.491 321.875 137.988C322.721 139.486 324.089 140.658 325.977 141.504C327.279 142.09 328.646 142.611 330.078 143.066C331.51 143.522 333.203 143.848 335.156 144.043V151.172Z" fill="#0A2E1A"/>
<path d="M266.211 151.172H204.98V144.043C206.673 143.913 208.301 143.75 209.863 143.555C211.491 143.359 212.923 143.034 214.16 142.578C216.243 141.797 217.643 140.69 218.359 139.258C219.141 137.76 219.531 135.807 219.531 133.398V25.1953C219.531 22.7214 219.01 20.4427 217.969 18.3594C216.992 16.2109 215.658 14.5833 213.965 13.4766C212.663 12.6302 210.677 11.8164 208.008 11.0352C205.404 10.2539 203.092 9.79818 201.074 9.66797V2.53906L250.195 0L251.66 1.5625V132.129C251.66 134.538 252.083 136.491 252.93 137.988C253.776 139.486 255.143 140.658 257.031 141.504C258.333 142.09 259.701 142.611 261.133 143.066C262.565 143.522 264.258 143.848 266.211 144.043V151.172Z" fill="#0A2E1A"/>
<path d="M197.754 151.172H136.035V144.043C137.728 143.913 139.388 143.75 141.016 143.555C142.643 143.359 144.043 143.034 145.215 142.578C147.298 141.797 148.763 140.69 149.609 139.258C150.456 137.76 150.879 135.807 150.879 133.398V76.5625C150.879 74.2839 150.358 72.2982 149.316 70.6055C148.275 68.8477 146.973 67.4479 145.41 66.4062C144.238 65.625 142.448 64.8763 140.039 64.1602C137.695 63.444 135.547 62.9883 133.594 62.793V55.6641L181.445 53.125L182.91 54.5898V132.129C182.91 134.408 183.398 136.361 184.375 137.988C185.352 139.551 186.751 140.723 188.574 141.504C189.876 142.09 191.309 142.611 192.871 143.066C194.434 143.522 196.061 143.848 197.754 144.043V151.172ZM183.496 17.9688C183.496 22.9167 181.576 27.1484 177.734 30.6641C173.958 34.1146 169.466 35.8398 164.258 35.8398C158.984 35.8398 154.427 34.1146 150.586 30.6641C146.81 27.1484 144.922 22.9167 144.922 17.9688C144.922 13.0208 146.81 8.78906 150.586 5.27344C154.427 1.75781 158.984 0 164.258 0C169.531 0 174.056 1.75781 177.832 5.27344C181.608 8.78906 183.496 13.0208 183.496 17.9688Z" fill="#0A2E1A"/>
<path d="M130.371 106.738L127.637 151.172H0V143.555C2.27865 143.359 4.94792 143.066 8.00781 142.676C11.0677 142.22 13.0859 141.797 14.0625 141.406C16.4062 140.495 18.0339 139.225 18.9453 137.598C19.8568 135.97 20.3125 133.887 20.3125 131.348V33.5938C20.3125 31.25 19.9544 29.3294 19.2383 27.832C18.5221 26.2695 16.7969 24.8698 14.0625 23.6328C12.0443 22.7214 9.60286 22.0052 6.73828 21.4844C3.9388 20.8984 1.69271 20.4753 0 20.2148V12.5977H76.0742V20.2148C73.9909 20.4102 71.5169 20.7031 68.6523 21.0938C65.8529 21.4193 63.4115 21.9076 61.3281 22.5586C58.7891 23.4049 57.0964 24.7396 56.25 26.5625C55.4036 28.3203 54.9805 30.3385 54.9805 32.6172V123.73C54.9805 128.027 55.2734 131.413 55.8594 133.887C56.4453 136.361 57.5846 138.184 59.2773 139.355C60.9701 140.592 63.3138 141.406 66.3086 141.797C69.3685 142.122 73.5677 142.285 78.9062 142.285C84.1146 142.285 89.1602 141.992 94.043 141.406C98.9909 140.755 102.539 139.388 104.688 137.305C108.008 133.984 111.393 129.329 114.844 123.34C118.359 117.285 121.159 111.751 123.242 106.738H130.371Z" fill="#0A2E1A"/>
</g>
<defs>
<clipPath id="clip0_15_2248">
<rect width="887.109" height="154.297" fill="white"/>
</clipPath>
</defs>
</svg>
