<svg width="728" height="113" viewBox="0 0 728 113" fill="none" xmlns="http://www.w3.org/2000/svg">
<path d="M2.34396 100.05C7.34228 109.067 18.7036 112.324 27.7202 107.326C36.7368 102.328 39.9942 90.9663 34.9959 81.9497C29.9976 72.9332 18.6362 69.6757 9.61966 74.674C0.603077 79.6724 -2.65437 91.0337 2.34396 100.05ZM112.367 43.0611L115.428 41.3642L112.034 35.242L108.973 36.9389L110.67 40L112.367 43.0611ZM18.6699 91L20.3668 94.0611L112.367 43.0611L110.67 40L108.973 36.9389L16.973 87.9389L18.6699 91Z" fill="#D4840A"/>
<path d="M107.726 25.1686C103.4 34.5267 107.48 45.6192 116.838 49.9444C126.197 54.2696 137.289 50.1896 141.614 40.8314C145.94 31.4733 141.86 20.3808 132.501 16.0556C123.143 11.7304 112.051 15.8104 107.726 25.1686ZM242.202 91.1771L245.379 92.6455L248.315 86.2913L245.138 84.8229L243.67 88L242.202 91.1771ZM124.67 33L123.202 36.1771L242.202 91.1771L243.67 88L245.138 84.8229L126.138 29.8229L124.67 33Z" fill="#F59E0B"/>
<path d="M236.395 100.141C241.443 109.13 252.822 112.324 261.811 107.275C270.8 102.227 273.994 90.8477 268.945 81.859C263.897 72.8704 252.518 69.6762 243.529 74.7246C234.54 79.7731 231.346 91.1523 236.395 100.141ZM327.384 53.0516L330.435 51.3377L327.008 45.2344L323.956 46.9484L325.67 50L327.384 53.0516ZM252.67 91L254.384 94.0516L327.384 53.0516L325.67 50L323.956 46.9484L250.956 87.9484L252.67 91Z" fill="#8AAD94"/>
<path d="M321.676 36.033C318.933 45.9706 324.765 56.2505 334.703 58.9937C344.641 61.7369 354.92 55.9047 357.664 45.967C360.407 36.0294 354.575 25.7495 344.637 23.0063C334.699 20.2631 324.419 26.0953 321.676 36.033ZM530.739 97.3738L534.112 98.3051L535.975 91.5575L532.601 90.6262L531.67 94L530.739 97.3738ZM339.67 41L338.739 44.3738L530.739 97.3738L531.67 94L532.601 90.6262L340.601 37.6262L339.67 41Z" fill="#4A7A55"/>
<path d="M525.586 101.521C529.74 110.957 540.756 115.238 550.191 111.084C559.627 106.93 563.908 95.914 559.754 86.4786C555.6 77.0432 544.584 72.7618 535.149 76.9157C525.713 81.0697 521.432 92.086 525.586 101.521ZM703.08 27.2033L706.283 25.793L703.463 19.3864L700.26 20.7967L701.67 24L703.08 27.2033ZM542.67 94L544.08 97.2033L703.08 27.2033L701.67 24L700.26 20.7967L541.26 90.7967L542.67 94Z" fill="#14532D"/>
<circle cx="705.67" cy="22" r="18.5" fill="#0A2E1A" stroke="#14532D" stroke-width="4"/>
</svg>
