<svg width="749" height="134" viewBox="0 0 749 134" fill="none" xmlns="http://www.w3.org/2000/svg">
<rect width="749" height="134" fill="white"/>
<path d="M3.67403 120.05C8.67236 129.067 20.0337 132.324 29.0503 127.326C38.0668 122.328 41.3243 110.966 36.326 101.95C31.3276 92.9332 19.9663 89.6757 10.9497 94.674C1.93315 99.6724 -1.32429 111.034 3.67403 120.05ZM113.697 63.0611L116.758 61.3642L113.364 55.242L110.303 56.9389L112 60L113.697 63.0611ZM20 111L21.6969 114.061L113.697 63.0611L112 60L110.303 56.9389L18.3031 107.939L20 111Z" fill="#D4840A"/>
<path d="M109.056 45.1686C104.73 54.5267 108.81 65.6192 118.169 69.9444C127.527 74.2696 138.619 70.1896 142.944 60.8314C147.27 51.4733 143.19 40.3808 133.831 36.0556C124.473 31.7304 113.381 35.8104 109.056 45.1686ZM243.532 111.177L246.709 112.645L249.645 106.291L246.468 104.823L245 108L243.532 111.177ZM126 53L124.532 56.1771L243.532 111.177L245 108L246.468 104.823L127.468 49.8229L126 53Z" fill="#F59E0B"/>
<path d="M237.725 120.141C242.773 129.13 254.152 132.324 263.141 127.275C272.13 122.227 275.324 110.848 270.275 101.859C265.227 92.8704 253.848 89.6762 244.859 94.7246C235.87 99.7731 232.676 111.152 237.725 120.141ZM328.714 73.0516L331.766 71.3377L328.338 65.2344L325.286 66.9484L327 70L328.714 73.0516ZM254 111L255.714 114.052L328.714 73.0516L327 70L325.286 66.9484L252.286 107.948L254 111Z" fill="#8AAD94"/>
<path d="M323.006 56.033C320.263 65.9706 326.095 76.2505 336.033 78.9937C345.971 81.7369 356.25 75.9047 358.994 65.967C361.737 56.0294 355.905 45.7495 345.967 43.0063C336.029 40.2631 325.75 46.0953 323.006 56.033ZM532.069 117.374L535.442 118.305L537.305 111.557L533.931 110.626L533 114L532.069 117.374ZM341 61L340.069 64.3738L532.069 117.374L533 114L533.931 110.626L341.931 57.6262L341 61Z" fill="#4A7A55"/>
<path d="M526.916 121.521C531.07 130.957 542.086 135.238 551.521 131.084C560.957 126.93 565.238 115.914 561.084 106.479C556.93 97.0432 545.914 92.7618 536.479 96.9157C527.043 101.07 522.762 112.086 526.916 121.521ZM704.41 47.2033L707.614 45.793L704.793 39.3864L701.59 40.7967L703 44L704.41 47.2033ZM544 114L545.41 117.203L704.41 47.2033L703 44L701.59 40.7967L542.59 110.797L544 114Z" fill="#14532D"/>
<circle cx="707" cy="42" r="18.5" fill="#0A2E1A" stroke="#14532D" stroke-width="7"/>
</svg>
