<svg width="888" height="227" viewBox="0 0 888 227" fill="none" xmlns="http://www.w3.org/2000/svg">
<g clip-path="url(#clip0_7_2382)">
<path d="M887.109 223.779H825.879V216.65C827.572 216.52 829.199 216.357 830.762 216.162C832.389 215.967 833.822 215.641 835.059 215.185C837.142 214.404 838.542 213.297 839.258 211.865C840.039 210.368 840.43 208.414 840.43 206.006V97.8025C840.43 95.3285 839.909 93.0499 838.867 90.9666C837.891 88.8181 836.556 87.1905 834.863 86.0837C833.561 85.2374 831.576 84.4236 828.906 83.6423C826.302 82.8611 823.991 82.4054 821.973 82.2751V75.1462L871.094 72.6072L872.559 74.1697V204.736C872.559 207.145 872.982 209.098 873.828 210.595C874.674 212.093 876.042 213.265 877.93 214.111C879.232 214.697 880.599 215.218 882.031 215.674C883.464 216.129 885.156 216.455 887.109 216.65V223.779Z" fill="#F2EDE3"/>
<path d="M820.117 221.728C817.253 222.965 813.867 224.105 809.961 225.146C806.055 226.188 801.921 226.709 797.559 226.709C789.551 226.709 783.659 225.537 779.883 223.193C776.107 220.784 773.535 217.366 772.168 212.939H771.582C769.368 215.153 767.22 217.041 765.137 218.603C763.118 220.166 760.938 221.5 758.594 222.607C755.534 224.039 752.572 225.081 749.707 225.732C746.908 226.448 742.969 226.806 737.891 226.806C730.339 226.806 723.893 224.593 718.555 220.166C713.216 215.674 710.547 209.749 710.547 202.392C710.547 198.161 711.133 194.58 712.305 191.65C713.477 188.655 715.137 186.019 717.285 183.74C719.238 181.657 721.484 179.931 724.023 178.564C726.628 177.197 729.46 175.927 732.52 174.756C738.379 172.607 745.41 170.394 753.613 168.115C761.816 165.771 767.806 163.688 771.582 161.865V152.49C771.582 150.862 771.452 148.714 771.191 146.045C770.931 143.375 770.378 141.129 769.531 139.306C768.62 137.223 767.188 135.465 765.234 134.033C763.281 132.601 760.71 131.885 757.52 131.885C754.655 131.885 752.246 132.308 750.293 133.154C748.405 133.935 746.875 134.749 745.703 135.595C745.898 136.898 746.452 138.883 747.363 141.552C748.275 144.222 748.73 146.793 748.73 149.267C748.73 150.374 748.438 151.774 747.852 153.467C747.266 155.094 746.419 156.396 745.312 157.373C743.815 158.675 742.122 159.684 740.234 160.4C738.411 161.116 735.579 161.474 731.738 161.474C726.27 161.474 722.135 160.172 719.336 157.568C716.536 154.899 715.137 151.448 715.137 147.217C715.137 143.571 716.569 140.316 719.434 137.451C722.363 134.521 725.911 132.112 730.078 130.224C734.18 128.271 738.9 126.774 744.238 125.732C749.577 124.625 754.525 124.072 759.082 124.072C765.397 124.072 771.191 124.463 776.465 125.244C781.738 125.96 786.491 127.49 790.723 129.834C794.759 132.112 797.949 135.433 800.293 139.795C802.702 144.092 803.906 149.723 803.906 156.689C803.906 164.046 803.743 172.77 803.418 182.861C803.158 192.952 803.027 199.593 803.027 202.783C803.027 205.713 803.451 208.024 804.297 209.717C805.208 211.409 806.576 212.679 808.398 213.525C809.505 214.046 811.23 214.372 813.574 214.502C815.983 214.567 818.164 214.599 820.117 214.599V221.728ZM771.582 170.849C767.936 172.086 764.323 173.519 760.742 175.146C757.161 176.709 754.232 178.369 751.953 180.127C749.544 181.95 747.656 184.293 746.289 187.158C744.922 189.957 744.238 193.278 744.238 197.119C744.238 202.197 745.378 205.875 747.656 208.154C750 210.433 752.865 211.572 756.25 211.572C759.831 211.572 762.76 210.856 765.039 209.424C767.383 207.926 769.434 206.103 771.191 203.955L771.582 170.849Z" fill="#F2EDE3"/>
<path d="M706.348 134.033C703.418 134.489 700.553 135.595 697.754 137.353C695.02 139.111 692.741 141.845 690.918 145.556C686.361 155.062 681.868 164.664 677.441 174.365C673.079 184 668.783 193.343 664.551 202.392C663.249 205.127 661.751 208.642 660.059 212.939C658.431 217.236 657.064 221.142 655.957 224.658H637.988C630.501 207.275 624.089 192.855 618.75 181.396C613.477 169.938 607.878 157.633 601.953 144.482C600.586 141.422 598.438 139.013 595.508 137.256C592.643 135.498 589.714 134.424 586.719 134.033V126.904H646.875V134.033C644.661 134.098 642.057 134.586 639.062 135.498C636.068 136.409 634.57 137.581 634.57 139.013C634.57 139.404 634.701 139.99 634.961 140.771C635.221 141.552 635.547 142.431 635.938 143.408C638.021 148.356 641.146 155.485 645.312 164.795C649.544 174.105 654.004 183.903 658.691 194.189C661.947 187.093 665.039 180.159 667.969 173.388C670.964 166.552 674.642 157.861 679.004 147.314C679.59 145.752 679.915 144.482 679.98 143.506C680.111 142.529 680.176 141.878 680.176 141.552C680.176 140.381 679.59 139.372 678.418 138.525C677.311 137.614 675.977 136.832 674.414 136.181C672.786 135.53 671.224 135.042 669.727 134.717C668.229 134.391 666.992 134.163 666.016 134.033V126.904H706.348V134.033Z" fill="#F2EDE3"/>
<path d="M586.035 223.779H527.246V216.65C528.548 216.52 530.078 216.357 531.836 216.162C533.594 215.967 534.896 215.641 535.742 215.185C537.109 214.469 538.053 213.427 538.574 212.06C539.16 210.693 539.453 208.675 539.453 206.006V160.302C539.453 153.597 538.184 148.584 535.645 145.263C533.171 141.943 529.622 140.283 525 140.283C522.396 140.283 519.954 140.674 517.676 141.455C515.462 142.236 513.281 143.375 511.133 144.873C509.245 146.175 507.715 147.51 506.543 148.877C505.436 150.244 504.492 151.448 503.711 152.49V204.931C503.711 207.34 504.004 209.261 504.59 210.693C505.176 212.06 506.283 213.2 507.91 214.111C508.887 214.697 510.156 215.218 511.719 215.674C513.346 216.129 514.909 216.455 516.406 216.65V223.779H457.031V216.65C458.724 216.52 460.352 216.357 461.914 216.162C463.542 215.967 464.974 215.641 466.211 215.185C468.294 214.404 469.694 213.297 470.41 211.865C471.191 210.368 471.582 208.414 471.582 206.006V97.1189C471.582 95.0356 471.094 92.822 470.117 90.4783C469.141 88.1345 467.773 86.3767 466.016 85.2048C464.714 84.3585 462.826 83.7074 460.352 83.2517C457.878 82.7309 455.664 82.4054 453.711 82.2751V75.1462L502.246 72.6072L503.711 74.1697V141.357H504.102C506.576 139.144 508.789 137.158 510.742 135.4C512.76 133.577 515.202 131.754 518.066 129.931C520.475 128.369 523.6 127.034 527.441 125.927C531.348 124.821 535.547 124.267 540.039 124.267C550.586 124.267 558.496 127.295 563.77 133.349C569.108 139.404 571.777 147.379 571.777 157.275V205.127C571.777 207.536 572.135 209.456 572.852 210.888C573.568 212.321 574.902 213.46 576.855 214.306C578.027 214.827 579.329 215.283 580.762 215.674C582.194 216.064 583.952 216.39 586.035 216.65V223.779Z" fill="#F2EDE3"/>
<path d="M449.609 200.439C447.331 204.15 444.564 207.666 441.309 210.986C438.118 214.241 434.473 217.041 430.371 219.385C426.009 221.858 421.582 223.714 417.09 224.951C412.663 226.253 407.552 226.904 401.758 226.904C392.122 226.904 383.789 225.537 376.758 222.802C369.792 220.068 364.03 216.39 359.473 211.767C354.915 207.145 351.497 201.709 349.219 195.459C347.005 189.144 345.898 182.308 345.898 174.951C345.898 168.31 347.103 161.963 349.512 155.908C351.986 149.788 355.469 144.352 359.961 139.599C364.388 134.977 369.954 131.233 376.66 128.369C383.431 125.504 390.983 124.072 399.316 124.072C408.431 124.072 415.918 125.179 421.777 127.392C427.637 129.606 432.487 132.666 436.328 136.572C440.039 140.283 442.741 144.677 444.434 149.756C446.126 154.769 446.973 160.042 446.973 165.576V171.924H380.957C380.957 185.27 383.529 195.426 388.672 202.392C393.815 209.358 401.986 212.842 413.184 212.842C419.303 212.842 424.805 211.181 429.688 207.861C434.57 204.476 438.737 200.211 442.188 195.068L449.609 200.439ZM412.305 163.33C412.305 159.424 412.109 155.42 411.719 151.318C411.328 147.217 410.645 143.864 409.668 141.26C408.561 138.2 407.031 135.888 405.078 134.326C403.19 132.763 400.781 131.982 397.852 131.982C392.839 131.982 388.835 134.521 385.84 139.599C382.845 144.677 381.217 152.718 380.957 163.72L412.305 163.33Z" fill="#F2EDE3"/>
<path d="M335.156 223.779H273.926V216.65C275.618 216.52 277.246 216.357 278.809 216.162C280.436 215.967 281.868 215.641 283.105 215.185C285.189 214.404 286.589 213.297 287.305 211.865C288.086 210.368 288.477 208.414 288.477 206.006V97.8025C288.477 95.3285 287.956 93.0499 286.914 90.9666C285.938 88.8181 284.603 87.1905 282.91 86.0837C281.608 85.2374 279.622 84.4236 276.953 83.6423C274.349 82.8611 272.038 82.4054 270.02 82.2751V75.1462L319.141 72.6072L320.605 74.1697V204.736C320.605 207.145 321.029 209.098 321.875 210.595C322.721 212.093 324.089 213.265 325.977 214.111C327.279 214.697 328.646 215.218 330.078 215.674C331.51 216.129 333.203 216.455 335.156 216.65V223.779Z" fill="#F2EDE3"/>
<path d="M266.211 223.779H204.98V216.65C206.673 216.52 208.301 216.357 209.863 216.162C211.491 215.967 212.923 215.641 214.16 215.185C216.243 214.404 217.643 213.297 218.359 211.865C219.141 210.368 219.531 208.414 219.531 206.006V97.8025C219.531 95.3285 219.01 93.0499 217.969 90.9666C216.992 88.8181 215.658 87.1905 213.965 86.0837C212.663 85.2374 210.677 84.4236 208.008 83.6423C205.404 82.8611 203.092 82.4054 201.074 82.2751V75.1462L250.195 72.6072L251.66 74.1697V204.736C251.66 207.145 252.083 209.098 252.93 210.595C253.776 212.093 255.143 213.265 257.031 214.111C258.333 214.697 259.701 215.218 261.133 215.674C262.565 216.129 264.258 216.455 266.211 216.65V223.779Z" fill="#F2EDE3"/>
<path d="M197.754 223.779H136.035V216.65C137.728 216.52 139.388 216.357 141.016 216.162C142.643 215.967 144.043 215.641 145.215 215.185C147.298 214.404 148.763 213.297 149.609 211.865C150.456 210.368 150.879 208.414 150.879 206.006V149.17C150.879 146.891 150.358 144.905 149.316 143.213C148.275 141.455 146.973 140.055 145.41 139.013C144.238 138.232 142.448 137.483 140.039 136.767C137.695 136.051 135.547 135.595 133.594 135.4V128.271L181.445 125.732L182.91 127.197V204.736C182.91 207.015 183.398 208.968 184.375 210.595C185.352 212.158 186.751 213.33 188.574 214.111C189.876 214.697 191.309 215.218 192.871 215.674C194.434 216.129 196.061 216.455 197.754 216.65V223.779Z" fill="#F2EDE3"/>
<path d="M130.371 179.345L127.637 223.779H0V216.162C2.27865 215.967 4.94792 215.674 8.00781 215.283C11.0677 214.827 13.0859 214.404 14.0625 214.013C16.4062 213.102 18.0339 211.832 18.9453 210.205C19.8568 208.577 20.3125 206.494 20.3125 203.955V106.201C20.3125 103.857 19.9544 101.937 19.2383 100.439C18.5221 98.8767 16.7969 97.477 14.0625 96.24C12.0443 95.3285 9.60286 94.6124 6.73828 94.0916C3.9388 93.5056 1.69271 93.0824 0 92.822V85.2048H76.0742V92.822C73.9909 93.0173 71.5169 93.3103 68.6523 93.7009C65.8529 94.0264 63.4115 94.5147 61.3281 95.1658C58.7891 96.0121 57.0964 97.3468 56.25 99.1697C55.4036 100.927 54.9805 102.946 54.9805 105.224V196.338C54.9805 200.635 55.2734 204.02 55.8594 206.494C56.4453 208.968 57.5846 210.791 59.2773 211.963C60.9701 213.2 63.3138 214.013 66.3086 214.404C69.3685 214.73 73.5677 214.892 78.9062 214.892C84.1146 214.892 89.1602 214.599 94.043 214.013C98.9909 213.362 102.539 211.995 104.688 209.912C108.008 206.592 111.393 201.937 114.844 195.947C118.359 189.892 121.159 184.358 123.242 179.345H130.371Z" fill="#F2EDE3"/>
<path d="M147.674 100.05C152.672 109.067 164.034 112.324 173.05 107.326C182.067 102.328 185.324 90.9663 180.326 81.9497C175.328 72.9332 163.966 69.6757 154.95 74.674C145.933 79.6724 142.676 91.0337 147.674 100.05ZM257.697 43.0611L260.758 41.3642L257.364 35.242L254.303 36.9389L256 40L257.697 43.0611ZM164 91L165.697 94.0611L257.697 43.0611L256 40L254.303 36.9389L162.303 87.9389L164 91Z" fill="#D4840A"/>
<path d="M253.056 25.1686C248.73 34.5267 252.81 45.6192 262.169 49.9444C271.527 54.2696 282.619 50.1896 286.944 40.8314C291.27 31.4733 287.19 20.3808 277.831 16.0556C268.473 11.7304 257.381 15.8104 253.056 25.1686ZM387.532 91.1771L390.709 92.6455L393.645 86.2913L390.468 84.8229L389 88L387.532 91.1771ZM270 33L268.532 36.1771L387.532 91.1771L389 88L390.468 84.8229L271.468 29.8229L270 33Z" fill="#F59E0B"/>
<path d="M381.725 100.141C386.773 109.13 398.152 112.324 407.141 107.275C416.13 102.227 419.324 90.8477 414.275 81.859C409.227 72.8704 397.848 69.6762 388.859 74.7246C379.87 79.7731 376.676 91.1523 381.725 100.141ZM472.714 53.0516L475.766 51.3377L472.338 45.2344L469.286 46.9484L471 50L472.714 53.0516ZM398 91L399.714 94.0516L472.714 53.0516L471 50L469.286 46.9484L396.286 87.9484L398 91Z" fill="#8AAD94"/>
<path d="M467.006 36.033C464.263 45.9706 470.095 56.2505 480.033 58.9937C489.971 61.7369 500.25 55.9047 502.994 45.967C505.737 36.0294 499.905 25.7495 489.967 23.0063C480.029 20.2631 469.75 26.0953 467.006 36.033ZM676.069 97.3738L679.442 98.3051L681.305 91.5575L677.931 90.6262L677 94L676.069 97.3738ZM485 41L484.069 44.3738L676.069 97.3738L677 94L677.931 90.6262L485.931 37.6262L485 41Z" fill="#4A7A55"/>
<path d="M670.916 101.521C675.07 110.957 686.086 115.238 695.521 111.084C704.957 106.93 709.238 95.914 705.084 86.4786C700.93 77.0432 689.914 72.7618 680.479 76.9157C671.043 81.0697 666.762 92.086 670.916 101.521ZM848.41 27.2033L851.614 25.793L848.793 19.3864L845.59 20.7967L847 24L848.41 27.2033ZM688 94L689.41 97.2033L848.41 27.2033L847 24L845.59 20.7967L686.59 90.7967L688 94Z" fill="#14532D"/>
<circle cx="851" cy="22" r="18.5" fill="#0A2E1A" stroke="#14532D" stroke-width="7"/>
</g>
<defs>
<clipPath id="clip0_7_2382">
<rect width="887.109" height="226.904" fill="white"/>
</clipPath>
</defs>
</svg>
